# xmcd
#
# Track frame offsets:
#	150
#	17454
#	24796
#	34048
#	38907
#	46321
#	53816
#	66769
#	72839
#	82581
#	90671
#	97825
#	102682
#	109853
#	114550
#	119993
#	127296
#	131409
#	138751
#	146775
#	152250
#	162662
#	166385
#	171936
#	180406
#	190110
#	195087
#	201428
#
# Disc length: 2874 seconds
#
# Revision: 1
# Processed by: cddbd v1.5.1PL0 Copyright (c) Steve Scherf et al.
# Submitted via: CDex 1.50Beta5
#
DISCID=7b0b381c
DTITLE=サウンドトラック - ファンタスティックフォーチュン2
DYEAR=1900
DGENRE=
TTITLE0=星の地図
TTITLE1=Shrine
TTITLE2=MARIN
TTITLE3=PLUTE
TTITLE4=SOROY
TTITLE5=SIRIUSU
TTITLE6=Crisis
TTITLE7=Sadness
TTITLE8=Knight
TTITLE9=AOI
TTITLE10=EBNIMARU
TTITLE11=It Scrambles
TTITLE12=ARK
TTITLE13=LUTE
TTITLE14=Sociable
TTITLE15=Lurk in a Dream
TTITLE16=Witchcraft
TTITLE17=AQUA
TTITLE18=YOHAN
TTITLE19=UNISYS
TTITLE20=Inside of a town
TTITLE21=Every day
TTITLE22=Suburbs
TTITLE23=BLUE
TTITLE24=星の地図(Magic Box Ver)
TTITLE25=Only Two
TTITLE26=When Sweet
TTITLE27=WAVEOny
EXTD=
EXTT0=
EXTT1=
EXTT2=
EXTT3=
EXTT4=
EXTT5=
EXTT6=
EXTT7=
EXTT8=
EXTT9=
EXTT10=
EXTT11=
EXTT12=
EXTT13=
EXTT14=
EXTT15=
EXTT16=
EXTT17=
EXTT18=
EXTT19=
EXTT20=
EXTT21=
EXTT22=
EXTT23=
EXTT24=
EXTT25=
EXTT26=
EXTT27=
PLAYORDER=
